<svg width="3806" height="332" viewBox="0 0 3806 332" fill="none" xmlns="http://www.w3.org/2000/svg">
<path d="M438.481 298.196C418.297 292.336 402.076 284.721 389.818 275.323L411.304 227.623C423.024 236.229 436.98 243.136 453.116 248.345C469.28 253.554 485.416 256.158 501.58 256.158C519.556 256.158 532.861 253.497 541.439 248.147C550.044 242.825 554.347 235.719 554.347 226.859C554.347 220.348 551.799 214.941 546.732 210.638C541.665 206.335 535.126 202.881 527.199 200.277C519.245 197.673 508.487 194.813 494.956 191.671C474.093 186.717 457.051 181.763 443.746 176.809C430.469 171.855 419.061 163.901 409.549 152.973C400.038 142.018 395.282 127.439 395.282 109.209C395.282 93.3275 399.585 78.9185 408.191 66.0098C416.796 53.1011 429.762 42.8818 447.086 35.3234C464.411 27.765 485.586 24 510.611 24C528.077 24 545.147 26.0948 561.821 30.2562C578.494 34.4175 593.102 40.4189 605.586 48.2321L586.053 96.2999C560.773 81.9758 535.494 74.8138 510.214 74.8138C492.493 74.8138 479.386 77.6729 470.922 83.4195C462.458 89.1662 458.212 96.6962 458.212 106.095C458.212 115.465 463.109 122.457 472.875 127.015C482.642 131.572 497.56 136.073 517.631 140.489C538.466 145.443 555.536 150.397 568.841 155.351C582.118 160.305 593.526 168.119 603.038 178.791C612.55 189.491 617.305 203.957 617.305 222.188C617.305 237.814 612.946 252.081 604.227 264.99C595.479 277.899 582.401 288.118 564.935 295.677C547.468 303.235 526.237 307 501.212 307C479.585 306.972 458.665 304.056 438.481 298.196Z" fill="#231F20"/>
<path d="M842.255 40.7979C860.09 48.8658 873.847 60.3308 883.501 75.1927C893.126 90.0547 897.966 107.634 897.966 127.96C897.966 148.031 893.154 165.553 883.501 180.529C873.847 195.504 860.118 206.969 842.255 214.923C824.393 222.878 803.359 226.841 779.127 226.841H724.011V302.283H660.685V28.6819H779.127C803.359 28.6819 824.393 32.73 842.255 40.7979ZM819.014 162.949C828.922 154.74 833.876 143.077 833.876 127.96C833.876 112.588 828.922 100.784 819.014 92.5742C809.106 84.3647 794.64 80.26 775.617 80.26H724.011V175.235H775.617C794.64 175.263 809.106 171.159 819.014 162.949Z" fill="#231F20"/>
<path d="M1117.24 302.298L1064.47 226.063H1061.33H1006.21V302.298H942.885V28.6965H1061.33C1085.56 28.6965 1106.59 32.7446 1124.46 40.8126C1142.29 48.8805 1156.05 60.3454 1165.7 75.2074C1175.33 90.0693 1180.17 107.649 1180.17 127.974C1180.17 148.3 1175.27 165.823 1165.5 180.543C1155.74 195.264 1141.87 206.53 1123.86 214.344L1185.23 302.298H1117.24ZM1101.21 92.5888C1091.31 84.3793 1076.84 80.2746 1057.82 80.2746H1006.21V175.646H1057.82C1076.84 175.646 1091.31 171.485 1101.21 163.134C1111.12 154.811 1116.08 143.063 1116.08 127.946C1116.05 112.575 1111.09 100.798 1101.21 92.5888Z" fill="#231F20"/>
<path d="M1285.86 288.599C1263.04 276.342 1245.21 259.47 1232.3 237.984C1219.39 216.498 1212.96 192.322 1212.96 165.486C1212.96 138.649 1219.42 114.474 1232.3 92.9878C1245.21 71.5017 1263.04 54.6298 1285.86 42.3722C1308.65 30.1146 1334.27 24 1362.66 24C1391.05 24 1416.59 30.1146 1439.26 42.3722C1461.94 54.6298 1479.77 71.5017 1492.82 92.9878C1505.84 114.474 1512.36 138.649 1512.36 165.486C1512.36 192.322 1505.84 216.498 1492.82 237.984C1479.8 259.47 1461.94 276.342 1439.26 288.599C1416.59 300.857 1391.05 306.972 1362.66 306.972C1334.27 306.972 1308.68 300.857 1285.86 288.599ZM1406.45 241.89C1419.48 234.474 1429.72 224.113 1437.14 210.808C1444.56 197.531 1448.29 182.414 1448.29 165.458C1448.29 148.529 1444.58 133.412 1437.14 120.107C1429.72 106.831 1419.48 96.4697 1406.45 89.0246C1393.43 81.6078 1378.82 77.8711 1362.69 77.8711C1346.52 77.8711 1331.95 81.5795 1318.92 89.0246C1305.9 96.4414 1295.65 106.802 1288.24 120.107C1280.82 133.384 1277.08 148.501 1277.08 165.458C1277.08 182.386 1280.79 197.503 1288.24 210.808C1295.65 224.113 1305.87 234.474 1318.92 241.89C1331.95 249.307 1346.55 253.016 1362.69 253.016C1378.82 253.044 1393.43 249.336 1406.45 241.89Z" fill="#231F20"/>
<path d="M1590.37 274.541C1568.6 252.913 1557.73 222.029 1557.73 181.916V28.6819H1621.06V179.566C1621.06 228.568 1641.38 253.055 1682.03 253.055C1701.82 253.055 1716.94 247.138 1727.38 235.277C1737.8 223.416 1743.01 204.846 1743.01 179.566V28.6819H1805.54V181.916C1805.54 222.057 1794.67 252.913 1772.9 274.541C1751.13 296.169 1720.73 306.983 1681.64 306.983C1642.54 306.983 1612.11 296.197 1590.37 274.541Z" fill="#231F20"/>
<path d="M1920.06 80.2883H1832.5V28.6819H2070.95V80.2883H1983.39V302.312H1920.06V80.2883Z" fill="#231F20"/>
<path d="M2231.2 205.355V302.283H2167.87V204.563L2061.94 28.6819H2129.17L2202.27 150.239L2275.36 28.6819H2337.5L2231.2 205.355Z" fill="#231F20"/>
<path d="M2393.21 294.861C2374.58 288.35 2360.18 279.745 2350.01 269.072L2361.34 246.794C2371.24 256.702 2384.41 264.713 2400.83 270.827C2417.25 276.942 2434.17 279.999 2451.64 279.999C2476.13 279.999 2494.5 275.498 2506.76 266.525C2519.01 257.551 2525.13 245.888 2525.13 231.535C2525.13 220.58 2521.82 211.861 2515.16 205.35C2508.51 198.839 2500.39 193.828 2490.73 190.318C2481.08 186.808 2467.66 182.958 2450.48 178.797C2429.9 173.588 2413.48 168.577 2401.22 163.736C2388.97 158.924 2378.49 151.564 2369.74 141.656C2361.02 131.748 2356.67 118.33 2356.67 101.401C2356.67 87.5866 2360.32 75.0177 2367.59 63.6943C2374.87 52.3709 2386.11 43.3121 2401.22 36.5181C2416.34 29.7524 2435.11 26.3553 2457.5 26.3553C2473.13 26.3553 2488.44 28.5068 2503.42 32.8097C2518.39 37.1126 2531.36 43.0291 2542.31 50.5874L2532.55 73.6588C2521.08 66.1005 2508.82 60.4388 2495.8 56.6454C2482.78 52.8804 2470.01 50.9837 2457.5 50.9837C2433.52 50.9837 2415.49 55.6263 2403.37 64.8549C2391.26 74.1118 2385.2 86.0297 2385.2 100.609C2385.2 111.564 2388.51 120.34 2395.16 126.992C2401.82 133.645 2410.14 138.712 2420.19 142.25C2430.21 145.761 2443.71 149.611 2460.64 153.772C2480.71 158.726 2496.93 163.623 2509.3 168.436C2521.68 173.248 2532.18 180.552 2540.78 190.318C2549.39 200.085 2553.69 213.305 2553.69 229.978C2553.69 243.793 2549.98 256.362 2542.57 267.685C2535.12 279.009 2523.74 288.011 2508.37 294.663C2493 301.316 2474.09 304.628 2451.7 304.628C2431.31 304.656 2411.84 301.401 2393.21 294.861Z" fill="#231F20"/>
<path d="M2662.5 286.454C2640.48 274.338 2623.29 257.721 2610.92 236.631C2598.55 215.513 2592.35 191.818 2592.35 165.492C2592.35 139.165 2598.55 115.47 2610.92 94.3523C2623.29 73.2342 2640.5 56.6454 2662.5 44.5294C2684.52 32.4134 2709.07 26.3553 2736.19 26.3553C2763.31 26.3553 2787.71 32.3567 2809.48 44.3312C2831.22 56.3057 2848.37 72.9228 2860.89 94.1825C2873.4 115.414 2879.65 139.193 2879.65 165.52C2879.65 191.847 2873.4 215.626 2860.89 236.857C2848.37 258.089 2831.25 274.706 2809.48 286.709C2787.71 298.683 2763.31 304.684 2736.19 304.684C2709.07 304.684 2684.52 298.598 2662.5 286.454ZM2794.81 264.203C2812.28 254.437 2825.95 240.877 2835.86 223.552C2845.77 206.227 2850.72 186.864 2850.72 165.52C2850.72 144.147 2845.77 124.812 2835.86 107.487C2825.95 90.1627 2812.28 76.6029 2794.81 66.8365C2777.35 57.0701 2757.81 52.1727 2736.19 52.1727C2714.56 52.1727 2694.94 57.0701 2677.36 66.8365C2659.78 76.6029 2645.97 90.1627 2635.92 107.487C2625.87 124.812 2620.86 144.175 2620.86 165.52C2620.86 186.893 2625.87 206.227 2635.92 223.552C2645.94 240.877 2659.75 254.437 2677.36 264.203C2694.94 273.97 2714.56 278.867 2736.19 278.867C2757.81 278.839 2777.38 273.941 2794.81 264.203Z" fill="#231F20"/>
<path d="M2990.07 286.649C2968.3 274.675 2951.23 258.058 2938.86 236.798C2926.49 215.566 2920.29 191.787 2920.29 165.46C2920.29 139.134 2926.49 115.354 2938.86 94.123C2951.23 72.8917 2968.35 56.2746 2990.27 44.2718C3012.15 32.2973 3036.63 26.2959 3063.75 26.2959C3084.08 26.2959 3102.85 29.6929 3120.03 36.4586C3137.21 43.2244 3151.82 53.1324 3163.8 66.1543L3145.42 84.5265C3124.05 62.8988 3097.07 52.0849 3064.52 52.0849C3042.89 52.0849 3023.22 57.0389 3005.5 66.9469C2987.77 76.8549 2973.9 90.4146 2963.85 107.598C2953.8 124.781 2948.79 144.088 2948.79 165.46C2948.79 186.833 2953.8 206.111 2963.85 223.295C2973.87 240.478 2987.75 254.038 3005.5 263.946C3023.22 273.854 3042.89 278.808 3064.52 278.808C3097.36 278.808 3124.33 267.881 3145.42 245.97L3163.8 264.342C3151.82 277.392 3137.16 287.328 3119.83 294.236C3102.51 301.143 3083.68 304.597 3063.36 304.597C3036.24 304.653 3011.81 298.652 2990.07 286.649Z" fill="#231F20"/>
<path d="M3225.57 28.6824H3254.5V302.284H3225.57V28.6824Z" fill="#231F20"/>
<path d="M3515.18 229.206H3362.74L3329.9 302.298H3299.81L3424.88 28.6965H3453.41L3578.51 302.298H3548.02L3515.18 229.206ZM3504.62 205.738L3438.95 58.7602L3373.27 205.738H3504.62Z" fill="#231F20"/>
<path d="M3623.83 28.6824H3652.77V277.288H3805.97V302.312H3623.83V28.6824Z" fill="#231F20"/>
<path fill-rule="evenodd" clip-rule="evenodd" d="M104.974 191.884C103.665 190.481 103.743 188.283 105.161 186.974C106.564 185.665 108.762 185.743 110.071 187.146C111.381 188.548 111.303 190.746 109.884 192.055C108.466 193.365 106.268 193.287 104.974 191.884ZM85.2882 189.842C89.6213 199.49 96.8848 207.954 107.11 215.233C109.276 216.776 111.583 218.272 114.015 219.706C115.589 220.642 117.226 221.546 118.909 222.434L128.043 213.939L112.253 196.95C108.746 199.194 104.008 198.68 101.078 195.516C97.7733 191.962 97.9759 186.382 101.53 183.077C105.083 179.773 110.664 179.976 113.968 183.529C116.914 186.694 117.07 191.448 114.576 194.783L130.365 211.773L139.515 203.278C138.751 201.532 137.972 199.849 137.146 198.197C135.899 195.656 134.574 193.256 133.187 190.98C126.671 180.256 118.769 172.385 109.463 167.366L85.2882 189.842ZM121.59 223.806L129.976 216.012L132.298 213.846L140.684 206.052C141.307 207.564 141.9 209.107 142.476 210.697L126.11 225.91C124.551 225.24 123.055 224.538 121.59 223.806ZM145.033 212.427L145.968 211.555C142.617 202.312 138.595 193.256 132.984 185.15L142.476 188.065L161.04 223.136L145.033 212.427ZM106.517 165.901C98.8176 162.347 90.2292 160.617 80.7368 160.71C79.9419 170.171 81.0486 178.853 84.0256 186.787L106.517 165.901ZM127.622 228.607L137.13 245.362L103.525 224.273L101.311 214.594C109.043 220.829 117.678 225.427 126.702 229.479L127.622 228.607ZM140.076 237.631L171.858 258.767L153.107 225.52L140.497 216.651L132.142 224.414L140.076 237.631Z" fill="url(#paint0_linear_3001_19170)"/>
<path fill-rule="evenodd" clip-rule="evenodd" d="M177.94 0C149.774 0 123.261 7.07643 100.021 19.4368C85.5251 21.3072 72.5412 24.7207 61.2252 29.6462C42.9885 37.5955 29.1318 48.5531 20.0291 62.2071C10.9108 75.8768 6.29709 91.339 6.29709 108.157C6.29709 127.532 11.4719 143.29 21.6501 155.011C31.7037 166.577 43.9238 175.087 57.9675 180.309C63.9685 182.553 70.7487 184.782 78.2772 187.042C77.5758 184.985 76.9835 182.881 76.5159 180.73C70.4214 178.875 64.8725 176.989 59.8847 175.134C46.7294 170.224 35.2575 162.228 25.8274 151.38C16.5377 140.703 11.8304 126.144 11.8304 108.157C11.8304 92.4456 16.148 78.0122 24.6272 65.2622C33.1377 52.4965 46.1994 42.2248 63.4385 34.6963C80.849 27.1211 102.452 23.2556 127.688 23.2556C145.332 23.2556 162.82 25.391 179.701 29.615C195.646 33.6053 209.846 39.31 221.957 46.5579L203.923 90.9649C178.501 77.0614 152.736 70.0162 127.298 70.0162C108.594 70.0162 94.4875 73.1491 85.338 79.3371C75.8768 85.7589 71.0605 94.3784 71.0605 104.946C71.0605 115.717 76.6717 123.791 87.7384 128.95C97.9166 133.72 113.597 138.442 134.296 143.009C155.51 148.06 173.108 153.172 186.653 158.191C199.823 163.101 211.295 170.972 220.741 181.556C221.77 182.725 222.736 183.94 223.656 185.203C222.736 185.967 221.817 186.793 220.897 187.712C219.977 188.632 219.136 189.614 218.356 190.627C213.244 187.541 206.043 188.617 201.086 193.573C196.285 198.405 195.179 205.388 197.984 210.454C188.913 215.566 184.393 225.495 186.512 235.767C179.81 238.557 175.633 244.823 174.09 251.463C173.341 254.596 173.201 257.791 173.653 260.753C170.988 260.363 168.135 260.456 165.345 261.017C158.362 262.42 151.629 266.707 148.745 273.736C138.458 271.663 128.545 276.246 123.479 285.333C118.382 282.543 111.415 283.696 106.614 288.513C101.673 293.469 100.629 300.702 103.746 305.798C102.78 306.547 101.845 307.357 100.972 308.23C84.9951 307.077 69.3459 304.302 54.2578 299.922C34.8522 294.28 18.9069 286.97 6.85822 278.163L26.6847 234.177C38.3748 242.266 52.1692 248.906 67.7249 253.925C84.5275 259.334 101.58 262.093 118.429 262.093C135.185 262.093 147.888 259.926 157.084 255.515L151.582 251.868C143.399 255.001 132.286 256.575 118.429 256.575C102.156 256.575 85.6654 253.91 69.4083 248.673C53.1668 243.436 38.9516 236.39 27.1679 227.755L24.4246 225.744L0 279.893L1.73014 281.218C14.5269 291.022 31.6725 299.112 52.6992 305.206C60.7264 307.529 68.9095 309.43 77.2173 310.849C85.5095 312.298 93.942 313.28 102.452 313.841C115.966 320.762 130.556 325.89 145.893 328.898C156.258 330.925 166.951 332 177.924 332C269.621 332 343.94 257.666 343.94 165.984C343.955 74.3181 269.621 0 177.94 0ZM110.542 300.187C112.724 293.36 118.07 291.318 123.23 293.282C118.055 292.285 113.597 294.888 110.542 300.187ZM125.957 308.729C127.407 308.464 128.872 308.402 130.384 308.542C128.919 308.62 127.438 308.682 125.957 308.729ZM140.188 305.876C142.37 299.049 147.717 297.008 152.876 298.971C147.701 297.974 143.243 300.561 140.188 305.876ZM129.792 297.756C133.766 285.302 143.508 281.561 152.938 285.162C143.493 283.322 135.356 288.045 129.792 297.756ZM166 300.78C168.182 293.953 173.528 291.911 178.672 293.89C173.513 292.893 169.039 295.48 166 300.78ZM158.331 288.824C162.306 276.371 172.063 272.614 181.478 276.23C172.048 274.391 163.896 279.129 158.331 288.824ZM212.761 197.485C207.477 200.54 204.905 205.029 205.918 210.189C203.923 205.045 205.949 199.683 212.761 197.485ZM189.146 268.546C185.499 259.131 189.193 249.359 201.616 245.322C191.968 250.933 187.26 259.1 189.146 268.546ZM197.937 239.944C194.29 230.53 197.984 220.757 210.407 216.72C200.759 222.331 196.051 230.514 197.937 239.944ZM206.806 265.631C204.811 260.472 206.822 255.126 213.633 252.912C208.334 255.983 205.762 260.472 206.806 265.631ZM211.747 239.804C209.752 234.645 211.779 229.298 218.59 227.085C213.291 230.155 210.734 234.645 211.747 239.804ZM225.012 192.887L225.137 193.885C223.827 194.742 222.596 195.755 221.458 196.971C222.502 195.397 223.687 194.025 225.012 192.887ZM222.44 222.487C219.931 216.003 220.897 209.347 225.822 204.515C225.822 204.718 225.869 206.448 225.885 207.071C222.611 211.56 221.318 216.829 222.44 222.487ZM170.411 244.963C173.778 240.412 175.461 235.159 175.461 229.205C175.461 221.676 172.5 215.348 166.639 210.407C163.88 208.085 160.732 205.965 157.193 204.094L162.509 214.132C162.696 214.288 162.898 214.444 163.07 214.6C167.683 218.512 169.928 223.282 169.928 229.189C169.928 233.008 169.071 236.453 167.325 239.523L170.411 244.963Z" fill="url(#paint1_linear_3001_19170)"/>
<defs>
<linearGradient id="paint0_linear_3001_19170" x1="80.4873" y1="160.707" x2="178.303" y2="251.849" gradientUnits="userSpaceOnUse">
<stop stop-color="#B01EFF"/>
<stop offset="1" stop-color="#E1467C"/>
</linearGradient>
<linearGradient id="paint1_linear_3001_19170" x1="58" y1="45" x2="268.937" y2="301.454" gradientUnits="userSpaceOnUse">
<stop stop-color="#B01EFF"/>
<stop offset="1" stop-color="#E1467C"/>
</linearGradient>
</defs>
</svg>
